<svg xmlns="http://www.w3.org/2000/svg" width="22.717" height="27.959" viewBox="0 0 22.717 27.959"><path id="Path_2" data-name="Path 2" d="M68.533,3.495H63.727V2.621A2.624,2.624,0,0,0,61.106,0H57.611A2.624,2.624,0,0,0,54.99,2.621v.874H50.184A2.187,2.187,0,0,0,48,5.679V8.737a.874.874,0,0,0,.874.874h.477l.755,15.852a2.618,2.618,0,0,0,2.618,2.5H65.993a2.618,2.618,0,0,0,2.618-2.5l.755-15.852h.477a.874.874,0,0,0,.874-.874V5.679A2.187,2.187,0,0,0,68.533,3.495Zm-11.8-.874a.875.875,0,0,1,.874-.874h3.495a.875.875,0,0,1,.874.874v.874H56.737Zm-6.99,3.058a.437.437,0,0,1,.437-.437H68.533a.437.437,0,0,1,.437.437V7.864H49.747Zm17.118,19.7a.873.873,0,0,1-.873.832H52.724a.873.873,0,0,1-.873-.832L51.1,9.611H67.616Z" transform="translate(-48)" fill="#ff8080"></path></svg>